<svg width="20" height="20" viewBox="0 0 20 20" fill="none" xmlns="http://www.w3.org/2000/svg">
<path d="M3.5 2C3.10218 2 2.72064 2.15804 2.43934 2.43934C2.15804 2.72064 2 3.10218 2 3.5V5C2 6.149 2.15 7.263 2.43 8.326C3.01919 10.5449 4.18454 12.5687 5.80793 14.1921C7.43133 15.8155 9.45506 16.9808 11.674 17.57C12.737 17.85 13.851 18 15 18H16.5C16.8978 18 17.2794 17.842 17.5607 17.5607C17.842 17.2794 18 16.8978 18 16.5V15.352C18.0001 15.0105 17.8838 14.6792 17.6701 14.4129C17.4565 14.1465 17.1584 13.961 16.825 13.887L13.602 13.171C13.2289 13.0882 12.8382 13.151 12.5099 13.3465C12.1815 13.5421 11.9401 13.8555 11.835 14.223L11.568 15.156C11.451 15.566 11.013 15.799 10.618 15.636C9.21558 15.0559 7.94133 14.205 6.86819 13.1318C5.79505 12.0587 4.94408 10.7844 4.364 9.382C4.201 8.987 4.434 8.549 4.844 8.432L5.777 8.165C6.14446 8.05992 6.45795 7.81854 6.65346 7.49015C6.84897 7.16176 6.91176 6.77112 6.829 6.398L6.113 3.175C6.03902 2.84165 5.85351 2.54351 5.58713 2.32987C5.32076 2.11622 4.98947 1.99986 4.648 2H3.5ZM16.5 4.56L13.28 7.78C13.2113 7.85369 13.1285 7.91279 13.0365 7.95378C12.9445 7.99477 12.8452 8.01682 12.7445 8.01859C12.6438 8.02037 12.5438 8.00184 12.4504 7.96412C12.357 7.9264 12.2722 7.87026 12.201 7.79904C12.1297 7.72782 12.0736 7.64299 12.0359 7.5496C11.9982 7.45621 11.9796 7.35618 11.9814 7.25548C11.9832 7.15477 12.0052 7.05546 12.0462 6.96346C12.0872 6.87146 12.1463 6.78866 12.22 6.72L15.44 3.5H12.75C12.5511 3.5 12.3603 3.42098 12.2197 3.28033C12.079 3.13968 12 2.94891 12 2.75C12 2.55109 12.079 2.36032 12.2197 2.21967C12.3603 2.07902 12.5511 2 12.75 2H17.25C17.4489 2 17.6397 2.07902 17.7803 2.21967C17.921 2.36032 18 2.55109 18 2.75V7.25C18 7.44891 17.921 7.63968 17.7803 7.78033C17.6397 7.92098 17.4489 8 17.25 8C17.0511 8 16.8603 7.92098 16.7197 7.78033C16.579 7.63968 16.5 7.44891 16.5 7.25V4.56Z" fill="#FF8B3A"/>
</svg>
