<svg width="72" height="72" viewBox="0 0 72 72" fill="none" xmlns="http://www.w3.org/2000/svg">
<path d="M36.0001 3.59961C31.5506 3.59957 27.2097 4.97362 23.5707 7.53394C19.9317 10.0943 17.1722 13.7159 15.6693 17.9039C14.1665 22.0918 13.9936 26.6417 15.1743 30.9316C16.3551 35.2215 18.8319 39.0421 22.2661 41.8712C26.0533 44.9996 28.8001 48.3944 28.8001 52.0412V54.3596C28.7997 54.9645 29.0025 55.552 29.3759 56.0279C29.7493 56.5037 30.2717 56.8405 30.8593 56.984C34.2368 57.8093 37.7634 57.8093 41.1409 56.984C41.7285 56.8405 42.2509 56.5037 42.6243 56.0279C42.9977 55.552 43.2004 54.9645 43.2001 54.3596V52.0412C43.2001 48.3944 45.9433 44.996 49.7341 41.8712C53.1683 39.0421 55.6451 35.2215 56.8258 30.9316C58.0066 26.6417 57.8337 22.0918 56.3308 17.9039C54.828 13.7159 52.0684 10.0943 48.4294 7.53394C44.7904 4.97362 40.4495 3.59957 36.0001 3.59961ZM31.9069 62.69C31.5563 62.6366 31.1987 62.6527 30.8544 62.7375C30.5101 62.8223 30.1858 62.9741 29.9002 63.1842C29.3233 63.6085 28.9386 64.2446 28.8307 64.9526C28.7228 65.6606 28.9006 66.3824 29.3249 66.9593C29.7492 67.5362 30.3853 67.9209 31.0933 68.0288C34.3458 68.5234 37.6544 68.5234 40.9069 68.0288C41.6149 67.9209 42.251 67.5362 42.6753 66.9593C43.0996 66.3824 43.2774 65.6606 43.1695 64.9526C43.0616 64.2446 42.6769 63.6085 42.1 63.1842C41.5231 62.7599 40.8013 62.5821 40.0933 62.69C37.3801 63.1031 34.62 63.1031 31.9069 62.69Z" fill="#FF8B3A"/>
</svg>
