<svg width="75" height="75" viewBox="0 0 75 75" fill="none" xmlns="http://www.w3.org/2000/svg">
<circle cx="37.5" cy="37.5" r="37.5" fill="#FF8B3A"/>
<path d="M27.1714 37.4329V34.4114C27.1714 33.27 27.72 32.7329 28.8857 32.7329H38.6229C50.3486 32.7329 57 37.9029 57 47.2357C57 56.3 50.6914 61 38.6229 61H28.8857C27.72 61 27.1714 60.4629 27.1714 59.3214V56.3C27.1714 55.1586 27.72 54.6214 28.8857 54.6214H38.6229C46.5771 54.6214 50.1429 52.2714 50.1429 47.1686C50.1429 41.7971 46.3029 39.1114 38.6229 39.1114H28.8857C27.72 39.1114 27.1714 38.5743 27.1714 37.4329ZM21 61V14H23.8114C23.7429 14.2014 23.7429 14.4029 23.7429 14.6714V19.7071C23.7429 20.8486 24.2914 21.3857 25.4571 21.3857H27.8571V31.7257H25.4571C24.2914 31.7257 23.7429 32.2629 23.7429 33.4043V38.44C23.7429 39.5814 24.2914 40.1186 25.4571 40.1186H27.8571V53.6143H25.4571C24.2914 53.6143 23.7429 54.1514 23.7429 55.2929V60.3286C23.7429 60.5971 23.7429 60.7986 23.8114 61H21ZM27.1714 18.7V15.6786C27.1714 14.5371 27.72 14 28.8857 14H52.7486V20.3786H28.8857C27.72 20.3786 27.1714 19.8414 27.1714 18.7Z" fill="#282828"/>
</svg>
