<svg width="20" height="20" viewBox="0 0 20 20" fill="none" xmlns="http://www.w3.org/2000/svg">
<path d="M10.75 16.82C11.9994 15.958 13.482 15.4975 15 15.5C15.71 15.5 16.396 15.598 17.046 15.782C17.1576 15.8135 17.2749 15.8188 17.3888 15.7973C17.5028 15.7759 17.6102 15.7283 17.7026 15.6583C17.795 15.5884 17.87 15.4979 17.9216 15.3941C17.9732 15.2903 18 15.1759 18 15.06V4.06001C17.9998 3.89679 17.9464 3.73807 17.8479 3.60795C17.7494 3.47783 17.6111 3.3834 17.454 3.33901C16.6555 3.11351 15.8297 2.99943 15 3.00001C13.517 2.99795 12.0567 3.36389 10.75 4.06501V16.82ZM9.25 4.06501C7.94325 3.36389 6.48296 2.99795 5 3.00001C4.15 3.00001 3.327 3.11801 2.546 3.33901C2.38893 3.3834 2.25063 3.47783 2.1521 3.60795C2.05356 3.73807 2.00016 3.89679 2 4.06001V15.06C2.00011 15.1759 2.02706 15.2901 2.07872 15.3938C2.13039 15.4975 2.20537 15.5878 2.2978 15.6576C2.39022 15.7275 2.49756 15.775 2.61141 15.7964C2.72526 15.8178 2.84252 15.8125 2.954 15.781C3.61979 15.5935 4.30831 15.499 5 15.5C6.579 15.5 8.042 15.987 9.25 16.82V4.06501Z" fill="black"/>
</svg>
