<svg width="72" height="72" viewBox="0 0 72 72" fill="none" xmlns="http://www.w3.org/2000/svg">
<path fill-rule="evenodd" clip-rule="evenodd" d="M34.6967 3.93494C35.0959 3.71497 35.5442 3.59961 36 3.59961C36.4557 3.59961 36.904 3.71497 37.3032 3.93494L44.5032 7.90934C44.8242 8.07455 45.1089 8.30248 45.3404 8.57966C45.5718 8.85683 45.7453 9.17762 45.8505 9.52302C45.9558 9.86843 45.9907 10.2314 45.9532 10.5906C45.9157 10.9497 45.8066 11.2977 45.6322 11.6139C45.4579 11.9301 45.2218 12.2081 44.9381 12.4315C44.6544 12.6549 44.3288 12.8191 43.9805 12.9144C43.6322 13.0097 43.2683 13.0342 42.9104 12.9864C42.5525 12.9386 42.2078 12.8195 41.8967 12.6361L36 9.38534L30.1032 12.6361C29.7921 12.8195 29.4474 12.9386 29.0895 12.9864C28.7316 13.0342 28.3677 13.0097 28.0194 12.9144C27.6711 12.8191 27.3455 12.6549 27.0618 12.4315C26.7781 12.2081 26.542 11.9301 26.3677 11.6139C26.1933 11.2977 26.0842 10.9497 26.0467 10.5906C26.0092 10.2314 26.0441 9.86843 26.1494 9.52302C26.2546 9.17762 26.4281 8.85683 26.6595 8.57966C26.891 8.30248 27.1757 8.07455 27.4967 7.90934L34.6967 3.93494ZM19.4508 15.4333C19.622 15.7439 19.7303 16.0852 19.7696 16.4377C19.8088 16.7901 19.7783 17.1469 19.6797 17.4875C19.5811 17.8282 19.4163 18.1461 19.1948 18.4231C18.9733 18.7 18.6994 18.9306 18.3888 19.1017L15.4908 20.7001L18.3888 22.2985C19.016 22.6442 19.4803 23.2248 19.6795 23.9128C19.8787 24.6007 19.7964 25.3396 19.4508 25.9669C19.1051 26.5942 18.5245 27.0585 17.8365 27.2577C17.1485 27.4569 16.4096 27.3746 15.7824 27.0289L12.6 25.2721V27.9001C12.6 28.6162 12.3155 29.303 11.8091 29.8093C11.3028 30.3157 10.616 30.6001 9.89995 30.6001C9.18387 30.6001 8.49711 30.3157 7.99076 29.8093C7.48441 29.303 7.19995 28.6162 7.19995 27.9001V20.7001C7.19986 20.217 7.32941 19.7427 7.5751 19.3266C7.82078 18.9106 8.1736 18.5681 8.59675 18.3349L15.7824 14.3749C16.4092 14.0289 17.1478 13.946 17.8357 14.1445C18.5237 14.343 19.1046 14.8066 19.4508 15.4333ZM52.5491 15.4333C52.7202 15.1222 52.951 14.8479 53.2283 14.6261C53.5055 14.4043 53.8238 14.2393 54.1649 14.1407C54.5059 14.042 54.8631 14.0116 55.216 14.0512C55.5688 14.0908 55.9104 14.1996 56.2211 14.3713L63.4031 18.3349C63.8263 18.5681 64.1791 18.9106 64.4248 19.3266C64.6705 19.7427 64.8 20.217 64.7999 20.7001V27.9001C64.7999 28.6162 64.5155 29.303 64.0091 29.8093C63.5028 30.3157 62.816 30.6001 62.0999 30.6001C61.3839 30.6001 60.6971 30.3157 60.1908 29.8093C59.6844 29.303 59.3999 28.6162 59.3999 27.9001V25.2721L56.2176 27.0289C55.9069 27.2001 55.5657 27.3084 55.2132 27.3476C54.8608 27.3869 54.504 27.3563 54.1634 27.2577C53.4754 27.0585 52.8948 26.5942 52.5491 25.9669C52.378 25.6563 52.2697 25.3151 52.2305 24.9626C52.1912 24.6102 52.2218 24.2534 52.3204 23.9128C52.5196 23.2248 52.9839 22.6442 53.6111 22.2985L56.5127 20.7001L53.6111 19.1017C53.3 18.9306 53.0257 18.6999 52.8039 18.4226C52.5821 18.1454 52.4171 17.8271 52.3185 17.486C52.2198 17.1449 52.1894 16.7878 52.229 16.4349C52.2686 16.0821 52.3774 15.7405 52.5491 15.4297V15.4333ZM26.4347 29.8225C26.6061 29.5117 26.8371 29.2378 27.1145 29.0163C27.3919 28.7949 27.7102 28.6303 28.0513 28.532C28.3924 28.4337 28.7494 28.4036 29.1021 28.4434C29.4548 28.4832 29.7962 28.5922 30.1068 28.7641L36 32.0149L41.8967 28.7641C42.2078 28.5808 42.5525 28.4617 42.9104 28.4139C43.2683 28.3661 43.6322 28.3905 43.9805 28.4859C44.3288 28.5812 44.6544 28.7454 44.9381 28.9688C45.2218 29.1921 45.4579 29.4702 45.6322 29.7864C45.8066 30.1026 45.9157 30.4505 45.9532 30.8097C45.9907 31.1688 45.9558 31.5318 45.8505 31.8773C45.7453 32.2227 45.5718 32.5434 45.3404 32.8206C45.1089 33.0978 44.8242 33.3257 44.5032 33.4909L38.7 36.6949V42.3001C38.7 43.0162 38.4155 43.703 37.9091 44.2093C37.4028 44.7157 36.716 45.0001 36 45.0001C35.2839 45.0001 34.5971 44.7157 34.0908 44.2093C33.5844 43.703 33.2999 43.0162 33.2999 42.3001V36.6949L27.4967 33.4909C27.1861 33.3198 26.9122 33.0892 26.6907 32.8123C26.4692 32.5353 26.3044 32.2174 26.2058 31.8767C26.1072 31.5361 26.0767 31.1793 26.1159 30.8269C26.1552 30.4744 26.2635 30.1331 26.4347 29.8225ZM9.89995 41.4001C10.616 41.4001 11.3028 41.6846 11.8091 42.1909C12.3155 42.6973 12.6 43.3841 12.6 44.1001V49.7053L18.3888 52.8985C19.016 53.2442 19.4803 53.8248 19.6795 54.5128C19.8787 55.2007 19.7964 55.9396 19.4508 56.5669C19.1051 57.1942 18.5245 57.6585 17.8365 57.8577C17.1485 58.0569 16.4096 57.9746 15.7824 57.6289L8.59675 53.6653C8.1736 53.4321 7.82078 53.0897 7.5751 52.6736C7.32941 52.2576 7.19986 51.7833 7.19995 51.3001V44.1001C7.19995 43.3841 7.48441 42.6973 7.99076 42.1909C8.49711 41.6846 9.18387 41.4001 9.89995 41.4001ZM62.0999 41.4001C62.816 41.4001 63.5028 41.6846 64.0091 42.1909C64.5155 42.6973 64.7999 43.3841 64.7999 44.1001V51.3001C64.8 51.7833 64.6705 52.2576 64.4248 52.6736C64.1791 53.0897 63.8263 53.4321 63.4031 53.6653L56.2176 57.6253C55.9065 57.8087 55.5618 57.9278 55.2039 57.9756C54.846 58.0234 54.4821 57.9989 54.1338 57.9036C53.7855 57.8083 53.4599 57.6441 53.1762 57.4207C52.8925 57.1973 52.6564 56.9193 52.4821 56.6031C52.3077 56.2869 52.1986 55.9389 52.1611 55.5798C52.1236 55.2206 52.1585 54.8576 52.2637 54.5122C52.369 54.1668 52.5425 53.846 52.7739 53.5689C53.0054 53.2917 53.2901 53.0637 53.6111 52.8985L59.3999 49.7053V44.1001C59.3999 43.3841 59.6844 42.6973 60.1908 42.1909C60.6971 41.6846 61.3839 41.4001 62.0999 41.4001ZM36 55.8001C36.716 55.8001 37.4028 56.0846 37.9091 56.591C38.4155 57.0973 38.7 57.7841 38.7 58.5001V61.1281L41.8967 59.3641C42.5216 59.0427 43.2471 58.9774 43.9192 59.1823C44.5913 59.3871 45.1571 59.8459 45.4964 60.4612C45.8357 61.0765 45.9218 61.7999 45.7363 62.4776C45.5508 63.1554 45.1085 63.7341 44.5032 64.0909L37.3032 68.0653C36.904 68.2853 36.4557 68.4007 36 68.4007C35.5442 68.4007 35.0959 68.2853 34.6967 68.0653L27.4967 64.0909C27.1757 63.9257 26.891 63.6978 26.6595 63.4206C26.4281 63.1434 26.2546 62.8227 26.1494 62.4772C26.0441 62.1318 26.0092 61.7688 26.0467 61.4097C26.0842 61.0505 26.1933 60.7026 26.3677 60.3864C26.542 60.0702 26.7781 59.7921 27.0618 59.5687C27.3455 59.3454 27.6711 59.1812 28.0194 59.0859C28.3677 58.9905 28.7316 58.9661 29.0895 59.0139C29.4474 59.0617 29.7921 59.1808 30.1032 59.3641L33.2999 61.1281V58.5001C33.2999 57.7841 33.5844 57.0973 34.0908 56.591C34.5971 56.0846 35.2839 55.8001 36 55.8001Z" fill="#FF8B3A"/>
</svg>
