<svg width="72" height="72" viewBox="0 0 72 72" fill="none" xmlns="http://www.w3.org/2000/svg">
<path fill-rule="evenodd" clip-rule="evenodd" d="M28.7999 25.1992C28.8008 21.4231 29.9891 17.7428 32.1969 14.6793C34.4046 11.6158 37.5199 9.32425 41.1018 8.12886C44.6837 6.93347 48.5508 6.89483 52.1559 8.01843C55.761 9.14202 58.9214 11.3709 61.1899 14.3897C63.4584 17.4085 64.72 21.0642 64.7963 24.8396C64.8725 28.6149 63.7596 32.3187 61.6148 35.4266C59.4701 38.5345 56.4023 40.8892 52.8455 42.1575C49.2888 43.4258 45.4232 43.5433 41.7959 42.4936L34.9452 49.3444C34.2702 50.0196 33.3547 50.399 32.4 50.3992H28.7999V53.9992C28.7999 54.954 28.4207 55.8696 27.7455 56.5448C27.0704 57.2199 26.1547 57.5992 25.2 57.5992H21.6V61.1992C21.6 62.154 21.2207 63.0696 20.5455 63.7448C19.8704 64.4199 18.9547 64.7992 18 64.7992H10.8C9.84517 64.7992 8.9295 64.4199 8.25437 63.7448C7.57924 63.0696 7.19995 62.154 7.19995 61.1992V53.9992C7.20016 53.0445 7.57957 52.129 8.25475 51.454L29.5056 30.2032C29.0363 28.5766 28.7988 26.8921 28.7999 25.1992ZM46.7999 14.3992C46.0839 14.3992 45.3971 14.6836 44.8908 15.19C44.3844 15.6963 44.0999 16.3831 44.0999 17.0992C44.0999 17.8153 44.3844 18.502 44.8908 19.0084C45.3971 19.5147 46.0839 19.7992 46.7999 19.7992C48.2321 19.7992 49.6056 20.3681 50.6183 21.3808C51.631 22.3935 52.2 23.767 52.2 25.1992C52.2 25.9153 52.4844 26.602 52.9908 27.1084C53.4971 27.6147 54.1839 27.8992 54.8999 27.8992C55.616 27.8992 56.3028 27.6147 56.8091 27.1084C57.3155 26.602 57.5999 25.9153 57.5999 25.1992C57.5999 22.3348 56.4621 19.5878 54.4367 17.5624C52.4113 15.537 49.6643 14.3992 46.7999 14.3992Z" fill="#FF8B3A"/>
</svg>
