<svg width="72" height="72" viewBox="0 0 72 72" fill="none" xmlns="http://www.w3.org/2000/svg">
<path d="M46.8865 33.2996C48.5785 33.2996 49.8637 31.7408 49.1797 30.1928C47.9461 27.3923 45.8524 25.0576 43.2023 23.5273C40.5522 21.9971 37.4835 21.3509 34.4413 21.6824C32.7565 21.8624 32.0473 23.756 32.8933 25.2248L36.7813 31.9496C37.0181 32.3598 37.3587 32.7005 37.7688 32.9374C38.1789 33.1744 38.6441 33.2993 39.1177 33.2996H46.8865ZM28.2241 27.9284C27.3745 26.4596 25.3801 26.1284 24.3793 27.4964C22.5696 29.9618 21.5958 32.9414 21.6001 35.9996C21.6001 39.182 22.6333 42.1196 24.3793 44.5064C25.3801 45.8744 27.3745 45.5396 28.2241 44.0744L32.1049 37.3496C32.3419 36.9392 32.4666 36.4736 32.4666 35.9996C32.4666 35.5257 32.3419 35.0601 32.1049 34.6496L28.2241 27.9284ZM32.8969 46.7744C32.0509 48.2432 32.7565 50.1368 34.4449 50.3168C37.4871 50.6484 40.5558 50.0022 43.2059 48.472C45.856 46.9417 47.9497 44.607 49.1833 41.8064C49.8673 40.2584 48.5785 38.6996 46.8865 38.6996H39.1177C38.6435 38.6993 38.1775 38.824 37.7667 39.0609C37.3559 39.2979 37.0148 39.6389 36.7777 40.0496L32.8969 46.7744Z" fill="#FF8B3A"/>
<path fill-rule="evenodd" clip-rule="evenodd" d="M50.8681 15.6488L53.1865 11.6276C53.5389 11.0078 53.6318 10.2738 53.445 9.5857C53.2582 8.89762 52.8068 8.31137 52.1894 7.95487C51.5719 7.59837 50.8385 7.50057 50.1492 7.68281C49.4599 7.86505 48.8707 8.31253 48.5101 8.92761L46.1917 12.9452C43.8136 11.893 41.2861 11.2177 38.7001 10.9436V6.29961C38.7001 5.58352 38.4156 4.89677 37.9093 4.39042C37.4029 3.88407 36.7162 3.59961 36.0001 3.59961C35.284 3.59961 34.5973 3.88407 34.0909 4.39042C33.5846 4.89677 33.3001 5.58352 33.3001 6.29961V10.9436C30.7141 11.2177 28.1866 11.893 25.8085 12.9452L23.4901 8.92761C23.3128 8.62032 23.0767 8.35095 22.7954 8.13489C22.514 7.91883 22.1928 7.76032 21.8501 7.66839C21.1581 7.48272 20.4207 7.57957 19.8001 7.93761C19.1795 8.29565 18.7265 8.88556 18.5409 9.57757C18.3552 10.2696 18.4521 11.007 18.8101 11.6276L21.1321 15.6488C19.0341 17.1844 17.1849 19.0336 15.6493 21.1316L11.6281 18.8096C11.3208 18.6323 10.9816 18.5173 10.6299 18.4711C10.2781 18.4249 9.92071 18.4485 9.57806 18.5404C9.23541 18.6323 8.91423 18.7908 8.63284 19.0069C8.35146 19.223 8.11538 19.4923 7.9381 19.7996C7.76081 20.1069 7.64579 20.4461 7.5996 20.7979C7.5534 21.1496 7.57694 21.507 7.66887 21.8496C7.7608 22.1923 7.91932 22.5135 8.13538 22.7949C8.35144 23.0763 8.6208 23.3123 8.9281 23.4896L12.9457 25.808C11.8934 28.1861 11.2181 30.7136 10.9441 33.2996H6.3001C5.58401 33.2996 4.89726 33.5841 4.39091 34.0904C3.88456 34.5968 3.6001 35.2835 3.6001 35.9996C3.6001 36.7157 3.88456 37.4025 4.39091 37.9088C4.89726 38.4151 5.58401 38.6996 6.3001 38.6996H10.9441C11.2249 41.3384 11.9161 43.8584 12.9457 46.1912L8.9281 48.5132C8.60819 48.6836 8.32586 48.9166 8.09793 49.1984C7.87 49.4802 7.70114 49.805 7.6014 50.1534C7.50167 50.5019 7.47312 50.8668 7.51744 51.2265C7.56176 51.5863 7.67805 51.9334 7.85937 52.2472C8.0407 52.561 8.28335 52.8351 8.57287 53.0531C8.86238 53.2712 9.19283 53.4287 9.54452 53.5163C9.89621 53.6039 10.2619 53.6198 10.6199 53.5631C10.9779 53.5063 11.3207 53.3781 11.6281 53.186L15.6493 50.8676C17.1849 52.9656 19.0341 54.8149 21.1321 56.3504L18.8101 60.3716C18.6328 60.6789 18.5178 61.0181 18.4716 61.3699C18.4254 61.7216 18.4489 62.079 18.5409 62.4216C18.6328 62.7643 18.7913 63.0855 19.0074 63.3669C19.2234 63.6483 19.4928 63.8843 19.8001 64.0616C20.1074 64.2389 20.4466 64.3539 20.7983 64.4001C21.1501 64.4463 21.5075 64.4228 21.8501 64.3308C22.1928 64.2389 22.514 64.0804 22.7954 63.8643C23.0767 63.6483 23.3128 63.3789 23.4901 63.0716L25.8085 59.054C28.1866 60.1063 30.7141 60.7816 33.3001 61.0556V65.6996C33.3001 66.4157 33.5846 67.1025 34.0909 67.6088C34.5973 68.1152 35.284 68.3996 36.0001 68.3996C36.7162 68.3996 37.4029 68.1152 37.9093 67.6088C38.4156 67.1025 38.7001 66.4157 38.7001 65.6996V61.0556C41.2861 60.7816 43.8136 60.1063 46.1917 59.054L48.5137 63.0716C48.8743 63.6867 49.4635 64.1342 50.1528 64.3164C50.8421 64.4987 51.5755 64.4008 52.193 64.0443C52.8104 63.6879 53.2618 63.1016 53.4486 62.4135C53.6354 61.7255 53.5425 60.9914 53.1901 60.3716L50.8681 56.3504C52.966 54.8148 54.8153 52.9655 56.3509 50.8676L60.3721 53.186C60.9899 53.515 61.7112 53.5912 62.3841 53.3986C63.057 53.206 63.6288 52.7597 63.979 52.1537C64.3291 51.5476 64.4303 50.8293 64.2611 50.1502C64.0919 49.4711 63.6656 48.8841 63.0721 48.5132L59.0545 46.1912C60.1067 43.8131 60.782 41.2856 61.0561 38.6996H65.7001C66.4162 38.6996 67.1029 38.4151 67.6093 37.9088C68.1156 37.4025 68.4001 36.7157 68.4001 35.9996C68.4001 35.2835 68.1156 34.5968 67.6093 34.0904C67.1029 33.5841 66.4162 33.2996 65.7001 33.2996H61.0561C60.782 30.7136 60.1067 28.1861 59.0545 25.808L63.0721 23.4896C63.6927 23.1316 64.1457 22.5417 64.3313 21.8496C64.517 21.1576 64.4201 20.4202 64.0621 19.7996C63.7041 19.179 63.1141 18.726 62.4221 18.5404C61.7301 18.3547 60.9927 18.4516 60.3721 18.8096L56.3509 21.1316C54.8143 19.0333 52.9638 17.1841 50.8645 15.6488H50.8681ZM36.0001 16.1996C32.4804 16.1943 29.0235 17.1315 25.9885 18.914C22.9955 20.6723 20.5145 23.183 18.7921 26.1968C17.088 29.1825 16.1944 32.5619 16.2001 35.9996C16.1951 39.5138 17.1298 42.9653 18.9073 45.9968C20.6681 48.9987 23.1854 51.4863 26.2081 53.2112C29.0953 54.86 32.4361 55.7996 36.0001 55.7996C39.5183 55.8056 42.9739 54.8696 46.0081 53.0888C49.0056 51.3275 51.4893 48.8116 53.2117 45.7916C54.8605 42.9044 55.8001 39.5636 55.8001 35.9996C55.8059 32.4815 54.8699 29.0259 53.0893 25.9916C51.3274 22.9925 48.8101 20.5075 45.7885 18.7844C42.8064 17.0853 39.4323 16.1943 36.0001 16.1996Z" fill="#FF8B3A"/>
</svg>
